<svg xmlns="http://www.w3.org/2000/svg" width="36" height="14" viewBox="0 0 36 14">
    <g fill="none" fill-rule="evenodd" transform="translate(-.119)">
        <rect width="35" height="14" x="1" fill="#F6A623" rx="3"/>
        <path fill="#FFF" d="M14.92 10.914h-1.408a.65.65 0 0 1-.39-.11.569.569 0 0 1-.212-.282l-.462-1.365H9.471l-.462 1.365a.605.605 0 0 1-.21.271.604.604 0 0 1-.38.121H7l3.03-7.828h1.86l3.03 7.828zM9.89 7.921h2.139l-.72-2.143a250.84 250.84 0 0 1-.164-.481 12.226 12.226 0 0 1-.185-.6 10.678 10.678 0 0 1-.35 1.091l-.72 2.133zm5.019-4.835h1.461a.65.65 0 0 1 .387.107c.1.072.172.167.215.285l1.515 4.19c.068.184.137.382.207.597.07.215.135.44.196.677.05-.236.108-.462.174-.677.067-.215.132-.413.197-.596l1.504-4.19c.036-.101.106-.192.21-.272a.604.604 0 0 1 .38-.121h1.473l-3.138 7.828h-1.644L14.91 3.086zm12.25 6.517c.25 0 .472-.021.666-.064.193-.043.376-.1.548-.172V8.179h-.774a.376.376 0 0 1-.269-.091.304.304 0 0 1-.096-.231v-1h2.783v3.305a4.043 4.043 0 0 1-1.319.64 5.16 5.16 0 0 1-.785.15 7.772 7.772 0 0 1-.894.048 4.104 4.104 0 0 1-1.59-.304 3.865 3.865 0 0 1-1.266-.838 3.858 3.858 0 0 1-.838-1.268 4.124 4.124 0 0 1-.304-1.593c0-.584.097-1.12.29-1.609.194-.489.47-.91.83-1.265.36-.355.796-.63 1.306-.827A4.72 4.72 0 0 1 27.158 3c.326 0 .633.027.92.08.286.054.55.128.792.22a3.647 3.647 0 0 1 1.2.753l-.526.8a.585.585 0 0 1-.18.178.428.428 0 0 1-.228.064.629.629 0 0 1-.333-.107 5.644 5.644 0 0 0-.406-.223 2.475 2.475 0 0 0-.809-.24 4.112 4.112 0 0 0-.494-.026c-.34 0-.646.06-.919.18a1.97 1.97 0 0 0-.695.508c-.192.218-.34.48-.444.787a3.173 3.173 0 0 0-.156 1.023c0 .416.058.785.172 1.107.115.322.273.595.476.817.202.222.442.391.72.507.277.117.581.175.91.175z"/>
    </g>
</svg>
