<?xml version="1.0" encoding="UTF-8"?>
<svg width="14px" height="13px" viewBox="0 0 14 13" version="1.1" xmlns="http://www.w3.org/2000/svg" xmlns:xlink="http://www.w3.org/1999/xlink">
    <!-- Generator: sketchtool 44.1 (41455) - http://www.bohemiancoding.com/sketch -->
    <title>E64421E1-0200-4353-91C6-637C77204342</title>
    <desc>Created with sketchtool.</desc>
    <defs></defs>
    <g id="Page-1" stroke="none" stroke-width="1" fill="none" fill-rule="evenodd">
        <g id="Leases_filter2.1" transform="translate(-172.000000, -683.000000)" fill="#4C719D">
            <g id="Group-31" transform="translate(0.000000, 439.000000)">
                <g id="Group-37" transform="translate(33.000000, 235.000000)">
                    <g id="Group-43" transform="translate(139.000000, 9.000000)">
                        <path d="M11.8029598,0.852223347 L10.3695833,0.852223347 L10.3695833,0.448538604 C10.3695833,0.201842372 10.1680147,0 9.92165314,0 C9.67529155,0 9.47372298,0.201842372 9.47372298,0.448538604 L9.47372298,0.852223347 L7.18927914,0.852223347 L7.18927914,0.448538604 C7.18927914,0.201842372 6.98771056,0 6.74134897,0 C6.49498738,0 6.29341881,0.201842372 6.29341881,0.448538604 L6.29341881,0.852223347 L4.00897497,0.852223347 L4.00897497,0.448538604 C4.00897497,0.201842372 3.8074064,0 3.56104481,0 C3.31468322,0 3.11311464,0.201842372 3.11311464,0.448538604 L3.11311464,0.852223347 L1.67973812,0.852223347 C0.761481279,0.852223347 0,1.61473897 0,2.53424311 L0,10.8770611 C0,11.7965653 0.761481279,12.5590809 1.67973812,12.5590809 L11.8029598,12.5590809 C12.7212167,12.5590809 13.4826979,11.7965653 13.4826979,10.8770611 L13.4826979,2.53424311 C13.4826979,1.61473897 12.7212167,0.852223347 11.8029598,0.852223347 Z M12.5868376,10.8770611 C12.5868376,11.3031728 12.2284935,11.6620037 11.8029598,11.6620037 L1.67973812,11.6620037 C1.25420446,11.6620037 0.895860329,11.3031728 0.895860329,10.8770611 L0.895860329,5.31518246 L12.5868376,5.31518246 L12.5868376,10.8770611 Z M12.5868376,4.41810525 L0.895860329,4.41810525 L0.895860329,2.53424311 C0.895860329,2.10813144 1.25420446,1.74930055 1.67973812,1.74930055 L3.11311464,1.74930055 L3.11311464,2.1529853 C3.11311464,2.39968153 3.31468322,2.6015239 3.56104481,2.6015239 C3.8074064,2.6015239 4.00897497,2.39968153 4.00897497,2.1529853 L4.00897497,1.74930055 L6.29341881,1.74930055 L6.29341881,2.1529853 C6.29341881,2.39968153 6.49498738,2.6015239 6.74134897,2.6015239 C6.98771056,2.6015239 7.18927914,2.39968153 7.18927914,2.1529853 L7.18927914,1.74930055 L9.47372298,1.74930055 L9.47372298,2.1529853 C9.47372298,2.39968153 9.67529155,2.6015239 9.92165314,2.6015239 C10.1680147,2.6015239 10.3695833,2.39968153 10.3695833,2.1529853 L10.3695833,1.74930055 L11.8029598,1.74930055 C12.2284935,1.74930055 12.5868376,2.10813144 12.5868376,2.53424311 L12.5868376,4.41810525 Z" id="Shape"></path>
                    </g>
                </g>
            </g>
        </g>
    </g>
</svg>