<?xml version="1.0" encoding="UTF-8"?>
<svg width="40px" height="40px" viewBox="0 0 40 40" version="1.1" xmlns="http://www.w3.org/2000/svg" xmlns:xlink="http://www.w3.org/1999/xlink">
    <!-- Generator: sketchtool 44.1 (41455) - http://www.bohemiancoding.com/sketch -->
    <title>70388FA2-DAD4-4FD2-B6E8-51048552A704</title>
    <desc>Created with sketchtool.</desc>
    <defs></defs>
    <g id="detail-panel" stroke="none" stroke-width="1" fill="none" fill-rule="evenodd">
        <g id="Detailed-side-panel-1_leases" transform="translate(-619.000000, -14.000000)">
            <g id="Group-85" transform="translate(619.000000, 0.000000)">
                <g id="Group-78" transform="translate(0.000000, 14.000000)">
                    <g id="Group-77" transform="translate(1.000000, 1.000000)">
                        <circle id="Oval" stroke="#2C4471" fill="#FFFFFF" cx="19" cy="19" r="19"></circle>
                        <path d="M24.3417519,12.4153728 C24.9404481,12.3981772 25.4398316,12.8590615 25.4576124,13.4451978 C25.4665029,13.7426178 25.3474575,14.0302725 25.129533,14.2376811 L20.4639955,18.8053402 L25.1184741,23.3621724 C25.5504201,23.7680733 25.5645148,24.4401875 25.1496991,24.8630718 C24.7348835,25.285956 24.0483669,25.2997549 23.6164208,24.8936417 C23.6057956,24.8836639 23.5956041,24.873474 23.5854126,24.8630718 L18.930934,20.3062395 L14.2875142,24.8522448 C13.8726986,25.2753414 13.1863988,25.288928 12.7542359,24.8828148 C12.3222899,24.4767016 12.3084121,23.8047998 12.7230109,23.3819155 C12.7334193,23.3715132 12.7438276,23.3613232 12.7542359,23.3513456 L17.3978726,18.8053402 L12.7433939,14.2485079 C12.31405,13.8398472 12.3042922,13.1677331 12.7217099,12.7473963 C12.9257567,12.5418984 13.2059144,12.4259873 13.4984321,12.425775 C13.7916003,12.4255628 14.0721917,12.5416861 14.2764554,12.7473963 L18.930934,17.3042286 L23.5962547,12.7367818 C23.7927121,12.5389263 24.0600763,12.4236521 24.3417519,12.4153728" id="Fill-4" fill="#2C4471" fill-rule="nonzero"></path>
                    </g>
                </g>
            </g>
        </g>
    </g>
</svg>