<?xml version="1.0" encoding="UTF-8"?>
<svg width="12px" height="12px" viewBox="0 0 12 12" version="1.1" xmlns="http://www.w3.org/2000/svg" xmlns:xlink="http://www.w3.org/1999/xlink">
    <!-- Generator: Sketch 46 (44423) - http://www.bohemiancoding.com/sketch -->
    <title>Delete</title>
    <desc>Created with Sketch.</desc>
    <defs></defs>
    <g id="create-leases" stroke="none" stroke-width="1" fill="none" fill-rule="evenodd">
        <g id="Leases_c3.2" transform="translate(-951.000000, -456.000000)" stroke="#FE576B">
            <g id="Group-34">
                <g id="Group-84">
                    <g id="Delete" transform="translate(952.000000, 457.000000)">
                        <circle id="Oval" cx="5" cy="5" r="5"></circle>
                        <path d="M5.30633007,5 L6.94252746,3.36380262 C7.01266548,3.31290988 7.04626295,3.22549205 7.02826325,3.14072517 C7.01026356,3.05595829 6.94404171,2.98973644 6.85927483,2.97173675 C6.77450795,2.95373705 6.68709012,2.98733452 6.63619738,3.05747254 L5,4.69366993 L3.36380262,3.05747254 C3.27652293,2.99414167 3.15615464,3.0036519 3.07990327,3.07990327 C3.0036519,3.15615464 2.99414167,3.27652293 3.05747254,3.36380262 L4.69366993,5 L3.05747254,6.63619738 C2.98733452,6.68709012 2.95373705,6.77450795 2.97173675,6.85927483 C2.98973644,6.94404171 3.05595829,7.01026356 3.14072517,7.02826325 C3.22549205,7.04626295 3.31290988,7.01266548 3.36380262,6.94252746 L5,5.30633007 L6.63619738,6.94252746 C6.72347707,7.00585833 6.84384536,6.9963481 6.92009673,6.92009673 C6.9963481,6.84384536 7.00585833,6.72347707 6.94252746,6.63619738 L5.30633007,5 Z" id="Shape" fill="#000000" fill-rule="nonzero"></path>
                    </g>
                </g>
            </g>
        </g>
    </g>
</svg>