<?xml version="1.0" encoding="UTF-8"?>
<svg width="21px" height="35px" viewBox="0 0 21 35" version="1.1" xmlns="http://www.w3.org/2000/svg" xmlns:xlink="http://www.w3.org/1999/xlink">
    <!-- Generator: Sketch 45 (43475) - http://www.bohemiancoding.com/sketch -->
    <title>Shape</title>
    <desc>Created with Sketch.</desc>
    <defs></defs>
    <g id="Page-1" stroke="none" stroke-width="1" fill="none" fill-rule="evenodd">
        <g id="Dashbaord_1_revised" transform="translate(-588.000000, -432.000000)" fill-rule="nonzero" fill="#D0021B">
            <g id="noun_1041091_cc" transform="translate(588.000000, 431.000000)">
                <g id="Group" transform="translate(0.000000, 0.336627)">
                    <path d="M10.5,0.708153246 C5.13348159,0.708153246 0.67588986,4.63746454 0.67588986,10.7560009 C0.67588986,13.1409928 1.99503207,16.2679757 2.75121348,18.0141216 L9.77545223,34.2452601 C9.89809295,34.5320639 10.183628,34.7186019 10.5,34.7186019 C10.816372,34.7186019 11.101907,34.5320639 11.2245478,34.2452601 L18.2487865,18.0141216 C19.0050072,16.2680028 20.3241101,13.1409928 20.3241101,10.7560009 C20.3241101,4.63746454 15.8665184,0.708153246 10.5,0.708153246 Z M10.5,2.25397596 C15.1168209,2.25397596 18.7522525,5.34911495 18.7522525,10.7560009 C18.7522525,12.5248665 17.5474629,15.7121558 16.8119908,17.4102846 L10.5,31.974833 L4.18800923,17.4102846 C3.45253705,15.7121056 2.24774748,12.5248665 2.24774748,10.7560009 C2.24774748,5.34911495 5.88317909,2.25397596 10.5,2.25397596 Z M10.5,5.73207706 C7.90498095,5.73207706 5.78442713,7.81753876 5.78442713,10.3695452 C5.78442713,12.9215826 7.90498095,15.0070133 10.5,15.0070133 C13.0950583,15.0070133 15.2155729,12.9215748 15.2155729,10.3695452 C15.2155729,7.81754649 13.0950583,5.73207706 10.5,5.73207706 Z M10.5,7.27789978 C12.2455479,7.27789978 13.6437152,8.65298637 13.6437152,10.3695452 C13.6437152,12.0861504 12.2455479,13.4611906 10.5,13.4611906 C8.75449141,13.4611906 7.35628476,12.0861427 7.35628476,10.3695452 C7.35628476,8.6529941 8.75449141,7.27789978 10.5,7.27789978 Z" id="Shape"></path>
                </g>
            </g>
        </g>
    </g>
</svg>