<?xml version="1.0" encoding="UTF-8"?>
<svg width="13px" height="13px" viewBox="0 0 13 13" version="1.1" xmlns="http://www.w3.org/2000/svg" xmlns:xlink="http://www.w3.org/1999/xlink">
    <!-- Generator: Sketch 45.2 (43514) - http://www.bohemiancoding.com/sketch -->
    <title>noun_1161300_cc</title>
    <desc>Created with Sketch.</desc>
    <defs></defs>
    <g id="Add-contact-flow" stroke="none" stroke-width="1" fill="none" fill-rule="evenodd">
        <g id="Deals-add-contact-2" transform="translate(-534.000000, -386.000000)" fill-rule="nonzero" fill="#3D9AE6">
            <g id="noun_1161300_cc" transform="translate(534.000000, 386.000000)">
                <path d="M0,9.59686055 C-8.14109306e-16,11.1155424 1.23113491,12.3466773 2.74981678,12.3466773 L10.0826615,12.3466773 C11.6013434,12.3466773 12.8324783,11.1155424 12.8324783,9.59686055 L12.8324783,9.30534657 C12.8324783,8.79911928 12.4221,8.38874097 11.9158727,8.38874097 C11.4096454,8.38874097 10.9992671,8.79911928 10.9992671,9.30534657 L10.9992671,9.59686055 C10.9992671,10.1030878 10.5888888,10.5134661 10.0826615,10.5134661 L2.74981678,10.5134661 C2.24358949,10.5134661 1.83321118,10.1030878 1.83321118,9.59686055 L1.83321118,9.30534657 C1.83321118,8.79911928 1.42283288,8.38874097 0.916605592,8.38874097 C0.410378302,8.38874097 0,8.79911928 0,9.30534657 L0,9.59686055 Z" id="Shape"></path>
                <path d="M6.41623914,9.69997867 C6.92246643,9.69997867 7.33284473,9.28960037 7.33284473,8.78337308 L7.33284473,3.01104937 L8.72608523,4.27138206 C9.10132621,4.61118711 9.68098555,4.58246062 10.0207906,4.20721965 C10.3605957,3.83197868 10.3318692,3.25231934 9.95662824,2.91251427 L7.03036489,0.265815622 C7.01432429,0.249775024 6.99370067,0.238317454 6.97536855,0.22456837 C6.95703644,0.210819286 6.93182979,0.19019566 6.90891465,0.174155062 C6.88149096,0.157375848 6.85318843,0.142077185 6.82412863,0.128324783 L6.75538321,0.0939520732 C6.72167088,0.081241001 6.68723843,0.0705286815 6.65226508,0.0618708774 L6.58810269,0.0435387656 C6.47232413,0.0209797063 6.35327961,0.0209797063 6.23750105,0.0435387656 L6.17333866,0.0618708774 C6.13835662,0.0704974784 6.10392232,0.0812103693 6.07022053,0.0939520732 L6.00147511,0.128324783 C5.97241332,0.142073262 5.94411059,0.157372037 5.91668909,0.174155062 C5.89377396,0.19019566 5.87085882,0.206236258 5.85023519,0.22456837 C5.82961156,0.242900482 5.81357097,0.249775024 5.79523885,0.265815622 L2.87585004,2.91251427 C2.63311168,3.1323296 2.52608228,3.46494672 2.59507877,3.78507197 C2.66407526,4.10519723 2.89861543,4.36419597 3.21035028,4.46450588 C3.52208512,4.56481579 3.8636547,4.4911974 4.10639305,4.27138206 L5.49963355,3.01104937 L5.49963355,8.78337308 C5.49963355,9.28960037 5.91001185,9.69997867 6.41623914,9.69997867 Z" id="Shape"></path>
            </g>
        </g>
    </g>
</svg>