<?xml version="1.0" encoding="UTF-8"?>
<svg width="20px" height="20px" viewBox="0 0 20 20" version="1.1" xmlns="http://www.w3.org/2000/svg" xmlns:xlink="http://www.w3.org/1999/xlink">
    <!-- Generator: Sketch 45.2 (43514) - http://www.bohemiancoding.com/sketch -->
    <title>Group-94</title>
    <desc>Created with Sketch.</desc>
    <defs></defs>
    <g id="Page-1" stroke="none" stroke-width="1" fill="none" fill-rule="evenodd">
        <g id="Attachment" transform="translate(1.000000, 1.000000)" fill-rule="nonzero">
            <g id="Group-94" transform="translate(0.000000, -0.000000)">
                <circle id="Oval" stroke="#2C4471" cx="9" cy="9" r="9"></circle>
                <path d="M12.3952219,5.60600419 C11.5872163,4.7979986 10.2766706,4.7979986 9.46866508,5.60600419 L5.42863711,9.64603216 C4.85712096,10.2175483 4.85712096,11.1635061 5.42863711,11.7350222 C6.00015327,12.3065384 6.94611103,12.3065384 7.51762719,11.7350222 L11.5576551,7.69499427 C11.9025356,7.35011383 11.9025356,6.78845141 11.5576551,6.44357097 C11.2127747,6.09869054 10.6511123,6.09869054 10.3062318,6.44357097 L6.40415607,10.3456467 C6.28591135,10.4638915 6.28591135,10.6511123 6.39430234,10.7595033 C6.51254706,10.877748 6.69976787,10.877748 6.80815886,10.769357 C6.80815886,10.769357 6.80815886,10.769357 6.81801259,10.7595033 L10.7200884,6.85742749 C10.8383331,6.73918277 11.0157002,6.73918277 11.1339449,6.85742749 C11.2521896,6.97567222 11.2521896,7.1530393 11.1339449,7.27128402 L7.09391694,11.311312 C6.73918277,11.6660462 6.18737407,11.6660462 5.84249364,11.311312 C5.48775947,10.9565778 5.48775947,10.4047691 5.84249364,10.0598887 L9.8825216,6.01986072 C10.4638915,5.43849084 11.3901418,5.43849084 11.9715117,6.01986072 C12.5528815,6.6012306 12.5528815,7.52748091 11.9715117,8.10885079 L8.06943588,12.0109266 C7.95119116,12.1291713 7.95119116,12.3163921 8.05958215,12.4247831 C8.17782687,12.5430278 8.36504768,12.5430278 8.47343868,12.4346368 C8.47343868,12.4346368 8.47343868,12.4346368 8.48329241,12.4247831 L12.3853682,8.52270731 C13.2032275,7.72455545 13.2032275,6.41400979 12.3952219,5.60600419 Z" id="Shape" fill="#2C4471"></path>
            </g>
        </g>
    </g>
</svg>