<?xml version="1.0" encoding="UTF-8"?>
<svg width="24px" height="24px" viewBox="0 0 24 24" version="1.1" xmlns="http://www.w3.org/2000/svg" xmlns:xlink="http://www.w3.org/1999/xlink">
    <!-- Generator: Sketch 46 (44423) - http://www.bohemiancoding.com/sketch -->
    <title>Del_Space</title>
    <desc>Created with Sketch.</desc>
    <defs></defs>
    <g id="create-leases" stroke="none" stroke-width="1" fill="none" fill-rule="evenodd">
        <g id="Leases_c5.2" transform="translate(-949.000000, -753.000000)">
            <g id="Group-86">
                <g id="Group-83" transform="translate(396.000000, 70.000000)">
                    <g transform="translate(71.000000, 566.000000)" id="Group-82">
                        <g>
                            <g id="Group-71">
                                <g id="Group-85">
                                    <g id="Group-84">
                                        <g id="Group-82" transform="translate(0.000000, 83.000000)">
                                            <g id="Group-2" transform="translate(0.000000, 34.000000)">
                                                <g id="Group-56-Copy" transform="translate(482.000000, 0.000000)">
                                                    <g id="Del_Space">
                                                        <circle id="Oval-2" fill="#FFA7A7" cx="12" cy="12" r="12"></circle>
                                                        <path d="M16.1503483,8.00031841 C16.5594743,7.9885676 16.9007338,8.30351829 16.9128846,8.70406128 C16.91896,8.90730675 16.8376089,9.10387892 16.6886876,9.24561398 L13.5004383,12.3669769 L16.6811304,15.4809412 C16.9763058,15.7583183 16.9859375,16.2176154 16.7024684,16.5065983 C16.4189993,16.7955811 15.9498602,16.8050108 15.6546848,16.5274886 C15.647424,16.5206702 15.6404595,16.5137067 15.633495,16.5065983 L12.452803,13.3926339 L9.27966805,16.4991996 C8.99619895,16.7883276 8.52720801,16.7976121 8.23188449,16.5200899 C7.93670915,16.2425678 7.92722561,15.7834158 8.21054652,15.4944329 C8.21765917,15.4873244 8.22477183,15.4803609 8.23188449,15.4735426 L11.4051676,12.3669769 L8.22447547,9.25301264 C7.9310783,8.97374959 7.92441018,8.51445255 8.20965743,8.22721056 C8.34909518,8.08678115 8.54054425,8.00757199 8.74043959,8.00742692 C8.94077948,8.00728185 9.13252491,8.08663608 9.27211084,8.22721056 L12.452803,11.3411749 L15.6409041,8.21995698 C15.7751555,8.08475014 15.957862,8.0059762 16.1503483,8.00031841" id="Fill-4" fill="#FFFFFF" fill-rule="nonzero"></path>
                                                    </g>
                                                </g>
                                            </g>
                                        </g>
                                    </g>
                                </g>
                            </g>
                        </g>
                    </g>
                </g>
            </g>
        </g>
    </g>
</svg>