<?xml version="1.0" encoding="UTF-8"?>
<svg width="47px" height="50px" viewBox="0 0 47 50" version="1.1" xmlns="http://www.w3.org/2000/svg" xmlns:xlink="http://www.w3.org/1999/xlink">
    <!-- Generator: Sketch 45.2 (43514) - http://www.bohemiancoding.com/sketch -->
    <title>Group 5</title>
    <desc>Created with Sketch.</desc>
    <defs></defs>
    <g id="Add-contact-flow" stroke="none" stroke-width="1" fill="none" fill-rule="evenodd">
        <g id="Deals-add-contact1" transform="translate(-697.000000, -102.000000)" fill-rule="nonzero" fill="#1ED26A">
            <g id="Group" transform="translate(396.000000, 70.000000)">
                <g id="Group-5" transform="translate(301.000000, 32.000000)">
                    <path d="M29.1429658,4.37554019 C25.0143138,-0.164082757 18.7945264,-0.711025281 14.1833047,2.89879538 C11.7704562,4.81309421 10.2155093,7.27433557 9.73293959,10.3372137 C9.08951331,14.3845884 10.5372224,17.7209378 13.325403,20.5650389 C13.1645464,20.6197331 13.1109276,20.6744274 13.0036899,20.6744274 C8.12437388,22.9168917 4.47829161,26.4720182 2.27991848,31.4491951 C1.69011105,32.8165514 1.15392248,34.238602 0.993065912,35.7153468 C0.564115057,39.7627215 3.51315219,42.8802939 7.4809476,42.8802939 C13.7543539,42.8802939 20.081379,42.8802939 26.3547852,42.8802939 L26.3547852,42.8802939 C26.6764984,42.8802939 26.9445927,42.6068226 26.9445927,42.2786571 L26.9445927,40.4737468 C26.9445927,40.1455812 26.6764984,39.87211 26.3547852,39.87211 L26.2475475,39.87211 C19.8669035,39.87211 13.4862596,39.87211 7.1056156,39.87211 C5.01448018,39.87211 3.40591447,37.8484226 3.94210304,35.7700411 C4.90724247,31.8867491 6.83752132,28.605094 9.89379616,26.0891584 C11.6632184,24.6124136 13.700735,23.5732228 15.952727,22.9168917 C16.2208213,22.8621975 16.4889156,22.752809 16.7570098,22.8621975 C19.4379527,23.9560825 22.1725144,24.0107768 24.8534572,22.9168917 C25.0679327,22.8621975 25.3896458,22.8075032 25.6041212,22.8621975 C28.6067772,23.6826113 31.1804824,25.2687446 33.2716178,27.5659032 C33.9150441,28.2769285 34.5584703,29.0973423 35.1482778,29.8630618 C35.3627532,30.1365331 35.6844663,30.1912273 35.9525606,29.9724503 L37.4002698,28.9879538 C37.7219829,28.7691768 37.7756018,28.3316227 37.5611263,28.0581515 C36.8104623,27.1283492 36.1134172,26.1985469 35.3627532,25.3781331 C33.4324743,23.2450573 31.1268635,21.7136182 28.4459207,20.5650389 C33.5933309,15.4784734 33.1107612,8.69638613 29.1429658,4.37554019 Z M12.5211201,12.0874298 C12.5211201,7.21964131 16.1135836,3.5551264 20.832043,3.60982066 C25.6577401,3.60982066 29.1965846,7.27433557 29.1965846,12.142124 C29.1965846,17.0099125 25.6577401,20.6197331 20.832043,20.5650389 C16.0599647,20.5650389 12.5211201,16.9552182 12.5211201,12.0874298 Z" id="Shape"></path>
                    <path d="M36.167036,39.2704732 L30.5906749,39.2704732 C29.5182978,39.2704732 28.8748715,39.87211 28.8748715,40.8019123 C28.8748715,41.7317146 29.5182978,42.3333513 30.6442938,42.3333513 L36.2206549,42.3333513 L36.3278926,48.8419674 C36.542368,49.5529927 37.293032,49.9358524 37.9900772,49.7717697 C38.6871223,49.6623812 39.169692,49.0060501 39.2233109,48.1856363 L39.2233109,42.2786571 L44.9605286,42.2786571 C45.8720492,42.2786571 46.5690943,41.6223261 46.5690943,40.747218 C46.5690943,39.87211 45.8720492,39.215779 44.9605286,39.215779 L39.2233109,39.215779 L39.2233109,33.4728825 C39.2233109,33.0353284 39.0088355,32.4883859 38.7407412,32.1602204 C38.3654092,31.6679721 37.7756018,31.6132779 37.1857943,31.8320549 C36.542368,32.1055261 36.2742738,32.5977744 36.2742738,33.2541054 L36.167036,39.2704732 Z" id="Shape"></path>
                </g>
            </g>
        </g>
    </g>
</svg>