<?xml version="1.0" encoding="UTF-8"?>
<svg width="54px" height="44px" viewBox="0 0 54 44" version="1.1" xmlns="http://www.w3.org/2000/svg" xmlns:xlink="http://www.w3.org/1999/xlink">
    <!-- Generator: Sketch 46 (44423) - http://www.bohemiancoding.com/sketch -->
    <title>Group 10</title>
    <desc>Created with Sketch.</desc>
    <defs></defs>
    <g id="create-leases" stroke="none" stroke-width="1" fill="none" fill-rule="evenodd">
        <g id="Leases_c2.2" transform="translate(-693.000000, -101.000000)" fill-rule="nonzero" fill="#1ED26A">
            <g id="Group-83">
                <g id="Group-43" transform="translate(396.000000, 70.000000)">
                    <g id="Group-37">
                        <g id="Group-10" transform="translate(297.000000, 31.000000)">
                            <g id="Lease-icon">
                                <path d="M31.7037689,4.19906946 L46.1253877,4.19906946 C46.3841107,4.19764849 46.6342977,4.29721269 46.8283455,4.47881798 L50.3431342,7.83580018 C50.5711073,8.05171308 50.6996234,8.36194791 50.6954092,8.68618363 C50.6911949,9.01041936 50.5546647,9.31677451 50.3211668,9.52593254 L45.7519414,13.6289108 C45.331431,14.0037066 44.7102689,13.9732986 44.3240583,13.559011 L42.9620776,12.1136436 L41.6000968,13.559011 C41.4022336,13.7696764 41.1334839,13.888085 40.8532042,13.888085 C40.5729244,13.888085 40.3041747,13.7696764 40.1063115,13.559011 L38.7443307,12.1136436 L37.38235,13.559011 C37.1858778,13.7729585 36.9169546,13.8946613 36.6354573,13.8970218 L31.6927852,13.8970218 C30.1846876,16.3373613 27.6319701,18 24.6851745,18 C20.03888,18 16.2496806,13.9788202 16.2496806,9.04804748 C16.2496806,4.1173083 20.03888,0.0960912245 24.6851745,0.0960912245 C27.6374743,0.0960912245 30.1969648,1.75108345 31.7037689,4.19906946 Z M18.3585541,9.04804748 C18.3585541,12.7692995 21.1786136,15.7620119 24.6851745,15.7620119 C27.095065,15.7620119 29.1828919,14.3341381 30.2539184,12.241843 C30.4382699,11.883525 30.7918571,11.6601706 31.1765505,11.6590336 L36.1961087,11.6590336 L37.997438,9.74741877 C38.1953013,9.53675334 38.464051,9.41834472 38.7443307,9.41834472 C39.0246105,9.41834472 39.2933601,9.53675334 39.4912234,9.74741877 L40.8532042,11.1927861 L42.2151849,9.74741877 C42.4130482,9.53675334 42.6817978,9.41834472 42.9620776,9.41834472 C43.2423574,9.41834472 43.511107,9.53675334 43.7089703,9.74741877 L45.1258696,11.2510484 L48.0365539,8.64006224 L45.729974,6.43705759 L31.1765505,6.43705759 C30.7895066,6.43359993 30.4353521,6.20540577 30.2539184,5.84257335 C29.1828919,3.75031554 27.095065,2.33407936 24.6851745,2.33407936 C21.1786136,2.33407936 18.3585541,5.32679168 18.3585541,9.04804748 Z M21.8733433,6.06405957 C23.4137874,6.06405957 24.6851745,7.41330532 24.6851745,9.04804748 C24.6851745,10.6827859 23.4137874,12.0320317 21.8733433,12.0320317 C20.3328991,12.0320317 19.0615119,10.6827859 19.0615119,9.04804748 C19.0615119,7.41330532 20.3328991,6.06405957 21.8733433,6.06405957 Z M21.8733433,8.30205143 C21.4726327,8.30205143 21.1703855,8.62279243 21.1703855,9.04804748 C21.1703855,9.47330252 21.4726327,9.79404352 21.8733433,9.79404352 C22.2740538,9.79404352 22.5763011,9.47330252 22.5763011,9.04804748 C22.5763011,8.62279243 22.2740538,8.30205143 21.8733433,8.30205143 Z" id="Shape"></path>
                                <path d="M53.4752787,32.7795479 C51.9316782,29.6996333 48.5202101,28.1341764 45.1731512,28.9656868 L37.9748646,30.7617493 C37.6550395,27.9922653 36.0137146,26.3580701 32.726623,25.5354292 L13.4660425,21.2647917 C13.5260097,20.8434931 13.5726509,20.4399333 13.605966,20.0651993 C13.6348391,19.7281604 13.5104627,19.3955563 13.2639308,19.1627333 C11.360527,17.3622361 3.74913297,16.7812875 1.46149484,16.6438111 C1.15055373,16.6260722 0.855159684,16.7347229 0.633058895,16.9431549 C0.410958106,17.1515868 0.284360656,17.4442785 0.284360656,17.7502743 L0.284360656,37.7065243 C0.284360656,38.318516 0.781866424,38.8152049 1.3948646,38.8152049 L8.05788828,38.8152049 C8.53762599,38.8152049 8.9640595,38.5069917 9.11286703,38.0502153 C9.14174013,37.9615208 9.29276867,37.495875 9.52153248,36.7752326 L25.435054,42.070291 C27.3007007,42.7731944 28.5888852,43.1811889 30.0369824,43.1811889 C32.2868634,43.1811889 34.9254208,42.1966806 40.7266934,39.8285389 L52.9422368,34.2851361 C53.2154208,34.1609639 53.4286375,33.9303583 53.5285829,33.6465361 C53.6285282,33.3627139 53.6107602,33.0478486 53.4752787,32.7795479 Z M7.2472204,36.5978438 L2.50314754,36.5978438 L2.50314754,18.9387799 C6.07230723,19.2203847 9.92575592,19.8323764 11.3249909,20.5108889 C10.7364238,25.3669097 8.07343534,33.9924444 7.2472204,36.5978438 Z M39.8427322,37.790784 C30.501173,41.6135146 30.1791269,41.4959944 26.1790917,39.9815368 L10.1745088,34.6554354 C11.087343,31.6376069 12.3599806,27.1629722 13.0884712,23.4533271 L32.2157911,27.6973563 C34.6744469,28.3093479 35.6650164,29.2783347 35.8004979,31.3027854 L33.6683303,31.8327347 C32.8776515,32.0322972 32.0358895,32.0544708 31.2341056,31.8926035 L21.5993734,29.967934 C20.9974803,29.8459792 20.4133552,30.2384521 20.2934208,30.8393569 C20.1734863,31.4402618 20.5621627,32.0234278 21.1640559,32.1431653 L30.8010091,34.0678347 C31.3007359,34.167616 31.8115677,34.2163979 32.3201785,34.2163979 C32.9576078,34.2163979 33.597258,34.1387903 34.2102562,33.983575 L37.1886278,33.240759 L37.2019539,33.240759 L45.7106351,31.1165271 C47.658459,30.6375771 49.628493,31.3116549 50.8522684,32.7950694 L39.8427322,37.790784 Z" id="Shape"></path>
                            </g>
                        </g>
                    </g>
                </g>
            </g>
        </g>
    </g>
</svg>