<?xml version="1.0" encoding="UTF-8"?>
<svg width="41px" height="64px" viewBox="0 0 41 64" version="1.1" xmlns="http://www.w3.org/2000/svg" xmlns:xlink="http://www.w3.org/1999/xlink">
    <!-- Generator: Sketch 45.2 (43514) - http://www.bohemiancoding.com/sketch -->
    <title>Group 43</title>
    <desc>Created with Sketch.</desc>
    <defs></defs>
    <g id="add-spaces" stroke="none" stroke-width="1" fill="none" fill-rule="evenodd">
        <g id="Detailed-side-panel-1_final_add-spaces" transform="translate(-704.000000, -91.000000)">
            <g id="Group-43" transform="translate(704.000000, 91.000000)">
                <g id="noun_1034805_cc" fill-rule="nonzero" fill="#1ED26A">
                    <g id="Group" transform="translate(0.000000, 0.410756)">
                        <path d="M0.65,0.23323748 C0.29102978,0.23327304 3.58916385e-05,0.521580832 3.55271368e-15,0.87723748 L3.55271368e-15,56.2612568 C3.58916385e-05,56.6169134 0.29102978,56.9052212 0.65,56.9052568 L31.85,56.9052568 C32.2089702,56.9052212 32.4999641,56.6169134 32.5,56.2612568 L32.5,0.87723748 C32.4999641,0.521580832 32.2089702,0.23327304 31.85,0.23323748 L0.65,0.23323748 L0.65,0.23323748 Z M1.3,1.52123748 L31.2,1.52123748 L31.2,55.6172568 L20.8,55.6172568 L20.8,46.6012568 C20.7999641,46.2456002 20.5089702,45.9572924 20.15,45.9572568 L12.35,45.9572568 C11.9910298,45.9572924 11.7000359,46.2456002 11.7,46.6012568 L11.7,55.6172568 L1.3,55.6172568 L1.3,1.52123748 Z M5.85,4.74123748 C5.49102978,4.74127304 5.20003589,5.02958083 5.2,5.38523748 L5.2,14.4012568 C5.20003589,14.7569134 5.49102978,15.0452212 5.85,15.0452568 L13.65,15.0452568 C14.0089702,15.0452212 14.2999641,14.7569134 14.3,14.4012568 L14.3,5.38523748 C14.2999641,5.02958083 14.0089702,4.74127304 13.65,4.74123748 L5.85,4.74123748 L5.85,4.74123748 Z M18.85,4.74123748 C18.4910298,4.74127304 18.2000359,5.02958083 18.2,5.38523748 L18.2,14.4012568 C18.2000359,14.7569134 18.4910298,15.0452212 18.85,15.0452568 L26.65,15.0452568 C27.0089702,15.0452212 27.2999641,14.7569134 27.3,14.4012568 L27.3,5.38523748 C27.2999641,5.02958083 27.0089702,4.74127304 26.65,4.74123748 L18.85,4.74123748 Z M6.5,6.02923748 L13,6.02923748 L13,13.7572375 L6.5,13.7572375 L6.5,6.02923748 Z M19.5,6.02923748 L26,6.02923748 L26,13.7572375 L19.5,13.7572375 L19.5,6.02923748 Z M5.85,18.2652568 C5.49102978,18.2652924 5.20003589,18.5536002 5.2,18.9092568 L5.2,27.9252568 C5.20003589,28.2809134 5.49102978,28.5692212 5.85,28.5692568 L13.65,28.5692568 C14.0089702,28.5692212 14.2999641,28.2809134 14.3,27.9252568 L14.3,18.9092568 C14.2999641,18.5536002 14.0089702,18.2652924 13.65,18.2652568 L5.85,18.2652568 L5.85,18.2652568 Z M18.85,18.2652568 C18.4910298,18.2652924 18.2000359,18.5536002 18.2,18.9092568 L18.2,27.9252568 C18.2000359,28.2809134 18.4910298,28.5692212 18.85,28.5692568 L26.65,28.5692568 C27.0089702,28.5692212 27.2999641,28.2809134 27.3,27.9252568 L27.3,18.9092568 C27.2999641,18.5536002 27.0089702,18.2652924 26.65,18.2652568 L18.85,18.2652568 L18.85,18.2652568 Z M6.5,19.5532568 L13,19.5532568 L13,27.2812568 L6.5,27.2812568 L6.5,19.5532568 Z M19.5,19.5532568 L26,19.5532568 L26,27.2812568 L19.5,27.2812568 L19.5,19.5532568 Z M5.85,31.7892568 C5.49102978,31.7892924 5.20003589,32.0776002 5.2,32.4332568 L5.2,41.4492568 C5.20003589,41.8049134 5.49102978,42.0932212 5.85,42.0932568 L13.65,42.0932568 C14.0089702,42.0932212 14.2999641,41.8049134 14.3,41.4492568 L14.3,32.4332568 C14.2999641,32.0776002 14.0089702,31.7892924 13.65,31.7892568 L5.85,31.7892568 L5.85,31.7892568 Z M18.85,31.7892568 C18.4910298,31.7892924 18.2000359,32.0776002 18.2,32.4332568 L18.2,41.4492568 C18.2000359,41.8049134 18.4910298,42.0932212 18.85,42.0932568 L26.65,42.0932568 C27.0089702,42.0932212 27.2999641,41.8049134 27.3,41.4492568 L27.3,32.4332568 C27.2999641,32.0776002 27.0089702,31.7892924 26.65,31.7892568 L18.85,31.7892568 L18.85,31.7892568 Z M6.5,33.0772568 L13,33.0772568 L13,40.8052568 L6.5,40.8052568 L6.5,33.0772568 Z M19.5,33.0772568 L26,33.0772568 L26,40.8052568 L19.5,40.8052568 L19.5,33.0772568 Z M13,47.2452568 L19.5,47.2452568 L19.5,55.6172568 L13,55.6172568 L13,47.2452568 Z" id="Shape"></path>
                    </g>
                </g>
                <g id="Group-41" transform="translate(25.000000, 47.880000)">
                    <ellipse id="Oval-2" stroke="#1ED26A" fill="#FFFFFF" cx="7.5" cy="7.56" rx="7.5" ry="7.56"></ellipse>
                    <polygon id="+" fill="#1ED26A" points="10.36875 7.9506 7.81875 7.9506 7.81875 10.6596 6.9125 10.6596 6.9125 7.9506 4.375 7.9506 4.375 7.1001 6.9125 7.1001 6.9125 4.41 7.81875 4.41 7.81875 7.1001 10.36875 7.1001"></polygon>
                </g>
            </g>
        </g>
    </g>
</svg>