<?xml version="1.0" encoding="UTF-8"?>
<svg width="14px" height="14px" viewBox="0 0 14 14" version="1.1" xmlns="http://www.w3.org/2000/svg" xmlns:xlink="http://www.w3.org/1999/xlink">
    <!-- Generator: Sketch 45.2 (43514) - http://www.bohemiancoding.com/sketch -->
    <title>Fill 11</title>
    <desc>Created with Sketch.</desc>
    <defs></defs>
    <g id="Create-deal" stroke="none" stroke-width="1" fill="none" fill-rule="evenodd">
        <g id="Deal-creation1_final_deal" transform="translate(-951.000000, -491.000000)" fill="#2C4471">
            <path d="M956.851622,500.67391 C957.901714,500.67391 958.88624,500.268417 959.627086,499.533856 C960.368105,498.799636 960.77699,497.82352 960.77699,496.782579 C960.77699,495.744197 960.369309,494.766886 959.628463,494.032496 C958.88624,493.296741 957.900509,492.892613 956.852827,492.892613 C955.803939,492.893978 954.818209,493.297935 954.077191,494.032496 C953.336344,494.766886 952.928663,495.744197 952.927287,496.783773 C952.927287,497.822326 953.334967,498.799636 954.077191,499.535221 C954.818209,500.269782 955.803939,500.67391 956.851622,500.67391 M956.852827,491.789066 C958.142812,491.789066 959.43142,492.275759 960.415946,493.251705 C962.249907,495.069684 962.372434,497.941056 960.787143,499.903013 L961.338691,500.449925 C961.630383,500.403524 961.942038,500.490013 962.166787,500.712634 L964.649526,503.173737 C965.022961,503.544088 965.021929,504.143371 964.649526,504.512528 C964.462637,504.697789 964.21913,504.789054 963.974246,504.789054 C963.730567,504.790249 963.485683,504.697789 963.298966,504.512528 L960.816054,502.051425 C960.591305,501.828805 960.505604,501.520889 960.551036,501.230716 L959.999488,500.683974 C959.081906,501.413247 957.96728,501.777457 956.852827,501.778651 C955.562842,501.778651 954.272857,501.290593 953.289708,500.316012 C951.321861,498.365484 951.321861,495.202403 953.289708,493.251705 C954.272857,492.276953 955.562842,491.789066 956.852827,491.789066 Z" id="Fill-11"></path>
        </g>
    </g>
</svg>