<?xml version="1.0" encoding="UTF-8"?>
<svg width="42px" height="52px" viewBox="0 0 42 52" version="1.1" xmlns="http://www.w3.org/2000/svg" xmlns:xlink="http://www.w3.org/1999/xlink">
    <!-- Generator: Sketch 46.2 (44496) - http://www.bohemiancoding.com/sketch -->
    <title>noun_1000252_cc</title>
    <desc>Created with Sketch.</desc>
    <defs></defs>
    <g id="Page-1" stroke="none" stroke-width="1" fill="none" fill-rule="evenodd">
        <g id="Leases_attachment2" transform="translate(-710.000000, -307.000000)" fill-rule="nonzero" fill="#1ED26A">
            <g id="noun_1000252_cc" transform="translate(710.000000, 307.000000)">
                <g id="Group" transform="translate(0.100000, 0.000000)">
                    <path d="M20.1285,17.0478 L19.978,16.8966 C16.6845,13.7802 11.4744,13.8236 8.2502,17.0478 C4.9749,20.3224 4.9749,25.6515 8.2502,28.9275 L21.0098,41.6871 L22.9894,39.7075 L10.2298,26.9472 C8.0465,24.7632 8.0465,21.2107 10.2298,19.0274 C11.2875,17.9697 12.6938,17.3873 14.1897,17.3873 C15.6842,17.3873 17.0884,17.969 18.1461,19.0239 L31.6099,32.4877 C32.3365,33.215 32.7369,34.1817 32.7369,35.21 C32.7369,36.239 32.3365,37.2057 31.6099,37.933 C30.1077,39.4352 27.6661,39.4352 26.1653,37.933 L14.5327,26.3004 C13.7144,25.4814 13.7144,24.15 14.5327,23.331 C15.3258,22.5379 16.709,22.5379 17.5028,23.331 L25.4639,31.2914 L27.4435,29.3118 L19.4831,21.3514 C18.5577,20.426 17.3271,19.9157 16.0181,19.9157 C14.7091,19.9157 13.4785,20.426 12.5531,21.3514 C10.6428,23.2617 10.6428,26.3704 12.5531,28.28 L24.185,39.9126 C25.4814,41.2104 27.1838,41.8572 28.8876,41.8572 C30.5907,41.8572 32.2931,41.2083 33.5895,39.9126 C34.8446,38.6575 35.5376,36.9866 35.5376,35.21 C35.5376,33.4348 34.846,31.7639 33.5895,30.5081 L20.1285,17.0478 Z" id="Shape"></path>
                    <path d="M39.6522,9.6726 L31.6274,1.6478 C30.688,0.7084 28.9772,0 27.65,0 L25.9,0 L20.3,0 L4.9,0 C2.198,0 0,2.1987 0,4.9 L0,46.9 C0,49.6013 2.198,51.8 4.9,51.8 L36.4,51.8 C39.1013,51.8 41.3,49.6013 41.3,46.9 L41.3,25.9 L41.3,15.4 L41.3,13.65 C41.3,12.3221 40.5916,10.612 39.6522,9.6726 Z M36.5274,10.5063 C36.484,10.5056 36.4427,10.5 36.4,10.5 L32.9,10.5 C31.7422,10.5 30.8,9.5578 30.8,8.4 L30.8,4.9 C30.8,4.8566 30.7944,4.816 30.7937,4.7733 L36.5274,10.5063 Z M38.5,46.9 C38.5,48.0578 37.5578,49 36.4,49 L4.9,49 C3.7422,49 2.8,48.0578 2.8,46.9 L2.8,4.9 C2.8,3.7422 3.7422,2.8 4.9,2.8 L20.3,2.8 L25.9,2.8 C27.0578,2.8 28,3.7422 28,4.9 L28,8.4 C28,11.1013 30.1987,13.3 32.9,13.3 L36.4,13.3 C37.5578,13.3 38.5,14.2422 38.5,15.4 L38.5,25.9 L38.5,46.9 Z" id="Shape"></path>
                </g>
            </g>
        </g>
    </g>
</svg>