<?xml version="1.0" encoding="UTF-8"?>
<svg width="52px" height="41px" viewBox="0 0 52 41" version="1.1" xmlns="http://www.w3.org/2000/svg" xmlns:xlink="http://www.w3.org/1999/xlink">
    <!-- Generator: Sketch 45.2 (43514) - http://www.bohemiancoding.com/sketch -->
    <title>Shape</title>
    <desc>Created with Sketch.</desc>
    <defs></defs>
    <g id="Create-deal" stroke="none" stroke-width="1" fill="none" fill-rule="evenodd">
        <g id="Deal-creation1_final_deal" transform="translate(-696.000000, -221.000000)" fill-rule="nonzero" fill="#1ED26A">
            <g id="noun_1036588_cc" transform="translate(696.000000, 221.000000)">
                <g id="Group" transform="translate(0.000000, 0.384568)">
                    <path d="M27.625,0.218373235 C27.4925573,0.241095595 27.3648385,0.285670749 27.247093,0.350266618 L16.0421512,6.247785 L1.20930233,6.247785 C0.541450754,6.24785159 6.67751414e-05,6.7877045 5.37038114e-16,7.45366735 L0,26.1448438 C6.67751414e-05,26.8108067 0.541450754,27.3506596 1.20930233,27.3507262 L5.49854651,27.3507262 C5.63389223,28.2711798 6.06018219,29.0989909 6.68895349,29.7248071 C6.89984553,29.9346909 6.88721619,29.8958012 7.01017442,29.9885938 C7.13313265,30.0813865 7.30538084,30.2033313 7.50145349,30.3465901 C7.89359819,30.6329872 8.42005042,31.0251401 9.05087209,31.4771049 C10.3125148,32.3809137 11.9514176,33.5405806 13.5857558,34.6990718 C16.8436272,37.0083365 20.0456541,39.2627637 20.0668605,39.2776563 C20.0738079,39.2836857 20.0787842,39.2916747 20.0857558,39.2964982 C21.403538,40.2416574 23.1465097,40.1859522 24.4127907,39.2964982 C25.1298955,39.7742363 25.8905666,40.0124909 26.6046512,40.0124909 C28.76562,40.0124909 32.1074998,38.9848982 35.6366279,37.6760938 C39.1557612,36.3710276 42.6459957,34.7957534 44.6875,33.3989799 C44.6933047,33.3929504 44.7006209,33.3837556 44.7063953,33.3801379 C45.7840857,32.6766865 46.5581395,31.583735 46.5581395,30.3654321 C46.5581395,29.7245659 46.3879453,29.0946431 46.1046512,28.5754504 C45.8691819,28.1439857 45.5465515,27.7922299 45.2165698,27.4072519 C45.5308759,27.3668549 45.9092219,27.3507262 46.5581395,27.3507262 L50.7906977,27.3507262 C51.4585492,27.3506596 51.9999332,26.8108067 52,26.1448438 L52,7.45366735 C51.9999332,6.7877045 51.4585492,6.24785159 50.7906977,6.247785 L40.9651163,6.247785 L28.3241279,0.331424706 C28.1076201,0.225016587 27.8641346,0.185644109 27.625,0.218373235 Z M27.8328488,2.76203132 L40.190407,8.54649824 C40.35017,8.62080867 40.524293,8.65939324 40.7005814,8.65954971 L49.5813953,8.65954971 L49.5813953,24.9389615 L46.5581395,24.9389615 C45.7997129,24.9389615 45.1744062,24.9238879 44.5174419,25.0520129 C44.1823641,25.1175526 43.878045,25.3640651 43.5537791,25.5230607 L27.4927326,7.8493475 C27.1596515,7.4818369 26.6350789,7.35480099 26.1700581,7.529035 L17.2514535,11.0147887 C17.2395116,11.0184063 17.2257256,11.011774 17.2136628,11.0147887 C17.1200072,11.037821 17.0320534,11.0713144 16.9302326,11.0713144 C16.2480071,11.0713144 15.7209302,10.5457607 15.7209302,9.86543206 C15.7209302,9.42207132 15.9430531,9.04074721 16.2877907,8.82912691 L16.3255814,8.810285 L27.8328488,2.76203132 Z M2.41860465,8.65954971 L13.6424419,8.65954971 C13.4982592,9.04954412 13.3023256,9.42841426 13.3023256,9.86543206 C13.3023256,11.8491387 14.9409411,13.4830791 16.9302326,13.4830791 C17.2684762,13.4830791 17.6014945,13.4377982 17.9127907,13.3511857 C17.9515463,13.3343329 17.9893889,13.315465 18.0261628,13.29466 L26.2645349,10.0726931 L43.2325581,28.7450276 L43.2514535,28.7638696 C43.633564,29.2043784 43.8731359,29.5136571 43.9883721,29.7248071 C44.1061249,29.9405997 44.1395349,30.0585953 44.1395349,30.3654321 C44.1395349,30.8526085 44.1230823,30.8751284 43.3648256,31.3640534 C43.3584577,31.3702644 43.3521589,31.3765455 43.3459302,31.3828953 C41.7014508,32.5117821 38.1993137,34.1493703 34.7863372,35.4150644 C31.3733607,36.6807585 27.841184,37.6007262 26.6046512,37.6007262 C26.3210027,37.6007262 26.092436,37.5652756 25.8110465,37.3746232 C26.2284088,35.9673025 25.7591922,34.3707685 24.5261628,33.4366637 L24.5450581,33.4178218 C24.5450581,33.4178218 24.4888256,33.3801379 24.4883721,33.3801379 C24.4373516,33.338535 21.5989836,31.002771 18.630814,28.5754504 C17.1334643,27.3509975 15.6172755,26.108396 14.4360465,25.1462225 C13.2548175,24.1839887 12.5100203,23.5704659 12.2252907,23.3562409 L12.2252907,23.3750828 C12.2209372,23.3690534 12.2107609,23.3811122 12.2063953,23.3750828 C11.5008533,22.8485946 10.6144813,22.5271968 9.6744186,22.5271968 C8.0032166,22.5271968 6.5437713,23.5236578 5.85755814,24.9389615 L2.41860465,24.9389615 L2.41860465,8.65954971 Z M9.6744186,24.9389615 C10.0943537,24.9389615 10.4468175,25.0677196 10.7514535,25.2969578 C10.7724047,25.3126343 11.7265666,26.0699887 12.9055233,27.0304137 C14.08448,27.9907784 15.6035656,29.2168291 17.1002907,30.4407997 C20.0937408,32.8888012 22.9956395,35.283171 22.9956395,35.283171 C23.0141763,35.2962606 23.0330791,35.3088269 23.0523256,35.3208549 C23.6395428,35.7482196 23.7533454,36.480974 23.3168605,37.0543107 C22.8727152,37.6376563 22.0848595,37.7605056 21.502907,37.3369394 C21.4966783,37.3305896 21.4903795,37.3243086 21.4840116,37.3180975 C21.4840116,37.3180975 18.2681714,35.0540232 15.002907,32.7395129 C13.3702751,31.5822276 11.7232676,30.4167725 10.4680233,29.517546 C9.8404014,29.0678725 9.29943633,28.6840703 8.91860465,28.4058732 C8.72818851,28.2667747 8.58893191,28.145885 8.48401163,28.0667188 C8.45358498,28.0437606 8.41944456,28.0348094 8.38953488,28.0101931 C8.33405088,27.955024 8.3494054,27.972909 8.35174419,27.9725093 C8.34615902,27.9679432 8.33723256,27.957162 8.33284884,27.9536674 C8.03397279,27.6312198 7.86046512,27.2253216 7.86046512,26.747785 C7.86046512,25.7345424 8.65828298,24.9389615 9.6744186,24.9389615 Z" id="Shape"></path>
                </g>
            </g>
        </g>
    </g>
</svg>