<?xml version="1.0" encoding="UTF-8"?>
<svg width="14px" height="4px" viewBox="0 0 14 4" version="1.1" xmlns="http://www.w3.org/2000/svg" xmlns:xlink="http://www.w3.org/1999/xlink">
    <!-- Generator: Sketch 44.1 (41455) - http://www.bohemiancoding.com/sketch -->
    <title>…</title>
    <desc>Created with Sketch.</desc>
    <defs></defs>
    <g id="Leases-Grid-&amp;-Filters" stroke="none" stroke-width="1" fill="none" fill-rule="evenodd">
        <g id="Leases_filters1" transform="translate(-495.000000, -676.000000)" fill="#26C76A">
            <g id="Group-13" transform="translate(257.000000, 337.000000)">
                <g id="Group-79" transform="translate(178.857143, 0.000000)">
                    <path d="M59.2257143,340.83 C59.2257143,340.649999 59.2590473,340.480001 59.3257143,340.32 C59.3923813,340.159999 59.484047,340.020001 59.6007143,339.9 C59.7173815,339.779999 59.8557135,339.685 60.0157143,339.615 C60.1757151,339.545 60.3490467,339.51 60.5357143,339.51 C60.7157152,339.51 60.8857135,339.545 61.0457143,339.615 C61.2057151,339.685 61.3457137,339.779999 61.4657143,339.9 C61.5857149,340.020001 61.6807139,340.159999 61.7507143,340.32 C61.8207146,340.480001 61.8557143,340.649999 61.8557143,340.83 C61.8557143,341.016668 61.8207146,341.189999 61.7507143,341.35 C61.6807139,341.510001 61.5857149,341.649999 61.4657143,341.77 C61.3457137,341.890001 61.2057151,341.983333 61.0457143,342.05 C60.8857135,342.116667 60.7157152,342.15 60.5357143,342.15 C60.3490467,342.15 60.1757151,342.116667 60.0157143,342.05 C59.8557135,341.983333 59.7173815,341.890001 59.6007143,341.77 C59.484047,341.649999 59.3923813,341.510001 59.3257143,341.35 C59.2590473,341.189999 59.2257143,341.016668 59.2257143,340.83 Z M69.6057143,340.83 C69.6057143,340.649999 69.6390473,340.480001 69.7057143,340.32 C69.7723813,340.159999 69.864047,340.020001 69.9807143,339.9 C70.0973815,339.779999 70.2357135,339.685 70.3957143,339.615 C70.5557151,339.545 70.7290467,339.51 70.9157143,339.51 C71.0957152,339.51 71.2657135,339.545 71.4257143,339.615 C71.5857151,339.685 71.7257137,339.779999 71.8457143,339.9 C71.9657149,340.020001 72.0607139,340.159999 72.1307143,340.32 C72.2007146,340.480001 72.2357143,340.649999 72.2357143,340.83 C72.2357143,341.016668 72.2007146,341.189999 72.1307143,341.35 C72.0607139,341.510001 71.9657149,341.649999 71.8457143,341.77 C71.7257137,341.890001 71.5857151,341.983333 71.4257143,342.05 C71.2657135,342.116667 71.0957152,342.15 70.9157143,342.15 C70.7290467,342.15 70.5557151,342.116667 70.3957143,342.05 C70.2357135,341.983333 70.0973815,341.890001 69.9807143,341.77 C69.864047,341.649999 69.7723813,341.510001 69.7057143,341.35 C69.6390473,341.189999 69.6057143,341.016668 69.6057143,340.83 Z M64.4157143,340.83 C64.4157143,340.649999 64.4490473,340.480001 64.5157143,340.32 C64.5823813,340.159999 64.674047,340.020001 64.7907143,339.9 C64.9073815,339.779999 65.0457135,339.685 65.2057143,339.615 C65.3657151,339.545 65.5390467,339.51 65.7257143,339.51 C65.9057152,339.51 66.0757135,339.545 66.2357143,339.615 C66.3957151,339.685 66.5357137,339.779999 66.6557143,339.9 C66.7757149,340.020001 66.8707139,340.159999 66.9407143,340.32 C67.0107146,340.480001 67.0457143,340.649999 67.0457143,340.83 C67.0457143,341.016668 67.0107146,341.189999 66.9407143,341.35 C66.8707139,341.510001 66.7757149,341.649999 66.6557143,341.77 C66.5357137,341.890001 66.3957151,341.983333 66.2357143,342.05 C66.0757135,342.116667 65.9057152,342.15 65.7257143,342.15 C65.5390467,342.15 65.3657151,342.116667 65.2057143,342.05 C65.0457135,341.983333 64.9073815,341.890001 64.7907143,341.77 C64.674047,341.649999 64.5823813,341.510001 64.5157143,341.35 C64.4490473,341.189999 64.4157143,341.016668 64.4157143,340.83 Z" id="…"></path>
                </g>
            </g>
        </g>
    </g>
</svg>