<svg xmlns="http://www.w3.org/2000/svg" width="23" height="23" viewBox="0 0 23 23">
    <path fill="#1ED26A" fill-rule="nonzero" d="M2.654 0a2.654 2.654 0 1 0 0 5.307 2.654 2.654 0 0 0 0-5.307zM11.5 0a2.654 2.654 0 1 0 0 5.307A2.654 2.654 0 0 0 11.5 0zm8.846 5.308a2.654 2.654 0 1 0 0-5.308 2.654 2.654 0 0 0 0 5.308zM2.654 8.846a2.654 2.654 0 1 0 0 5.308 2.654 2.654 0 0 0 0-5.308zm8.846 0a2.654 2.654 0 1 0 0 5.308 2.654 2.654 0 0 0 0-5.308zm8.846 0a2.654 2.654 0 1 0 0 5.308 2.654 2.654 0 0 0 0-5.308zM2.654 17.692a2.654 2.654 0 1 0 0 5.308 2.654 2.654 0 0 0 0-5.308zm8.846 0a2.654 2.654 0 1 0 0 5.308 2.654 2.654 0 0 0 0-5.308zm8.846 0a2.654 2.654 0 1 0 0 5.308 2.654 2.654 0 0 0 0-5.308z"/>
</svg>
