<svg xmlns="http://www.w3.org/2000/svg" xmlns:xlink="http://www.w3.org/1999/xlink" width="15" height="15" viewBox="0 0 15 15">
    <defs>
        <path id="b" d="M0 0h215v141.992c0 1.109-.889 2.008-1.991 2.008H1.99A2 2 0 0 1 0 141.992V0z"/>
        <filter id="a" width="110.7%" height="116%" x="-5.3%" y="-4.5%" filterUnits="objectBoundingBox">
            <feOffset dy="5" in="SourceAlpha" result="shadowOffsetOuter1"/>
            <feGaussianBlur in="shadowOffsetOuter1" result="shadowBlurOuter1" stdDeviation="3"/>
            <feComposite in="shadowBlurOuter1" in2="SourceAlpha" operator="out" result="shadowBlurOuter1"/>
            <feColorMatrix in="shadowBlurOuter1" values="0 0 0 0 0 0 0 0 0 0 0 0 0 0 0 0 0 0 0.220250226 0"/>
        </filter>
    </defs>
    <g fill="none" fill-rule="evenodd">
        <text fill="#0D4472" font-family="Lato-Bold, Lato" font-size="11" font-weight="bold" transform="translate(9 -1)">
            <tspan x="3.063" y="11">OCCUPANCY</tspan>
        </text>
        <g transform="translate(-67 -41)">
            <use fill="#000" filter="url(#a)" xlink:href="#b"/>
            <use fill="#FFF" xlink:href="#b"/>
            <path stroke="#E4E5E7" d="M.5.5v141.492a1.5 1.5 0 0 0 1.491 1.508H213.01c.824 0 1.491-.673 1.491-1.508V.5H.5z"/>
        </g>
        <g fill="#1ED26A" fill-rule="nonzero" stroke="#1ED26A" stroke-width=".5">
            <path d="M13.586 11.212l-1.949-1.97a1.029 1.029 0 0 0-.737-.297c-.294 0-.577.115-.787.324l-.947.957-.153-.085a9.674 9.674 0 0 1-2.345-1.715 9.804 9.804 0 0 1-1.704-2.379l-.077-.145.948-.957c.427-.42.439-1.11.026-1.544L3.908 1.433a1.025 1.025 0 0 0-.737-.298 1.112 1.112 0 0 0-.79.325l-.478.488a.204.204 0 0 0-.03.038l-.038.065a3.326 3.326 0 0 0-.66 1.645c-.26 2.179.72 4.167 3.383 6.858 3.152 3.185 5.809 3.431 6.547 3.431.081.001.162-.002.243-.01.283-.034.56-.105.827-.21a3.19 3.19 0 0 0 .81-.466l.11-.087.016-.015.45-.446a1.1 1.1 0 0 0 .025-1.54zm-.307 1.252l-.44.436-.1.08c-.216.17-.454.307-.71.407a2.956 2.956 0 0 1-.725.185c-.007 0-.076.008-.199.008-.7 0-3.216-.238-6.263-3.312C2.277 7.675 1.33 5.786 1.574 3.744c.029-.25.09-.496.18-.732.098-.258.234-.502.401-.721l.014-.02.037-.052.463-.47a.71.71 0 0 1 .502-.207.628.628 0 0 1 .453.178l1.949 1.968a.694.694 0 0 1-.026.968L4.485 5.725a.205.205 0 0 0-.034.243l.155.271a10.153 10.153 0 0 0 1.775 2.48c.719.712 1.54 1.311 2.435 1.776l.286.16a.2.2 0 0 0 .238-.04l1.055-1.066a.71.71 0 0 1 .504-.205.632.632 0 0 1 .454.187l1.947 1.97c.123.123.19.292.187.468a.717.717 0 0 1-.21.495h.002zM8.316 2.483c2.33.003 4.219 1.91 4.222 4.265 0 .113.09.204.2.204.112 0 .202-.091.202-.204-.003-2.579-2.071-4.668-4.624-4.671a.202.202 0 0 0-.2.203c0 .112.09.203.2.203zM7.914 4.379c1.517.001 2.746 1.243 2.748 2.776 0 .112.09.203.2.203.112 0 .202-.091.202-.203-.003-1.757-1.411-3.18-3.15-3.183a.202.202 0 0 0-.2.204c0 .112.09.203.2.203z"/>
        </g>
    </g>
</svg>
