<svg xmlns="http://www.w3.org/2000/svg" width="37" height="37" viewBox="0 0 37 37">
    <g fill="none" fill-rule="evenodd" stroke="#1ED26A" transform="translate(1 1)">
        <circle cx="17.5" cy="17.5" r="17.5" stroke-width="2"/>
        <path fill="#1ED26A" fill-rule="nonzero" d="M25.1 25.87l-4.093-4.093a6.263 6.263 0 0 1-3.993 1.433 6.237 6.237 0 0 1-4.44-1.84 6.238 6.238 0 0 1-1.838-4.439c0-1.677.653-3.254 1.84-4.44a6.236 6.236 0 0 1 4.439-1.839c1.677 0 3.254.654 4.44 1.84a6.281 6.281 0 0 1 .405 8.432l4.093 4.093-.853.853zm-8.086-14.011a5.04 5.04 0 0 0-3.586 1.485 5.04 5.04 0 0 0-1.486 3.587 5.04 5.04 0 0 0 1.486 3.587 5.04 5.04 0 0 0 3.586 1.486 5.041 5.041 0 0 0 3.587-1.486 5.079 5.079 0 0 0 0-7.174 5.04 5.04 0 0 0-3.587-1.485z"/>
    </g>
</svg>
