<?xml version="1.0" encoding="UTF-8" standalone="no"?>
<svg id="svg4155" xmlns:rdf="http://www.w3.org/1999/02/22-rdf-syntax-ns#" xmlns="http://www.w3.org/2000/svg" height="512" width="512" version="1.1" xmlns:cc="http://creativecommons.org/ns#" xmlns:dc="http://purl.org/dc/elements/1.1/">
 <path id="body-bg-flat" fill="#fff" d="m112 504s-10.3-90.31 78.44-100.39h37.97v-17.49s26.71 11.47 53.76 1.28l0.86 16.21h44.37s77.27 7.72 72.6 100.39h-288z"/>
 <path id="Rounded Rectangle 13 copy" fill="#3b434f" d="m399.26 505.59h-284.51-5.52l1.38-23.53c2.68-45.95 38.88-81.01 80.31-81.01h31.52v4.7h-29.01c-39.92 0-74.81 33.75-77.4 77.97l-0.96 16.32h283.44l-0.53-16.32c-2.59-44.22-37.48-77.97-77.4-77.97h-38.83v-4.7h41.09c41.42 0 77.62 35.06 80.31 81.01l1.38 23.53h-5.27z"/>
 <path id="neck copy 5" fill="#3b434f" d="m232.68 384.15v26.31c0 13.66 11.08 24.73 24.75 24.73 13.66 0 24.74-11.07 24.74-24.73v-25.77c1.44-0.44 2.86-0.91 4.27-1.43v27.38c0 16.15-13.09 29.24-29.23 29.24s-29.22-13.09-29.22-29.24v-28.19c1.54 0.61 3.11 1.18 4.69 1.7z"/>
 <path id="Rounded Rectangle 14" fill="#3b434f" d="m227.77 434.76c1.53 0 2.78 1.24 2.78 2.77v41.82c0 1.53-1.25 2.77-2.78 2.77s-2.77-1.24-2.77-2.77v-41.82c0-1.53 1.24-2.77 2.77-2.77z"/>
 <path id="Rounded Rectangle 15" fill="#3b434f" d="m286.01 434.33c1.65 0 2.99 1.34 2.99 2.99v26.03c0 1.65-1.34 2.98-2.99 2.98s-2.98-1.33-2.98-2.98v-26.03c0-1.65 1.33-2.99 2.98-2.99z"/>
 <path id="Rounded Rectangle 16" fill="#3b434f" d="m227.77 479.13c0.83 0 1.5 0.67 1.5 1.5v10.66c0 0.83-0.67 1.5-1.5 1.5-0.82 0-1.49-0.67-1.49-1.5v-10.66c0-0.83 0.67-1.5 1.49-1.5z"/>
 <path id="Rounded Rectangle 16 copy" fill="#3b434f" d="m286.23 463.35c0.82 0 1.49 0.67 1.49 1.49v10.67c0 0.82-0.67 1.49-1.49 1.49-0.83 0-1.5-0.67-1.5-1.49v-10.67c0-0.82 0.67-1.49 1.5-1.49z"/>
 <path id="Shape 1 copy" fill="#f5f3ef" d="m211.77 373.65s-27.03 6.2-27.03 6.2-33.09 7.5-11.07 29.8c22.01 22.3 78.64 26.24 78.64 26.24s-14.97-7.09-21.34-17.06c0 0-2.13-35.84-2.13-35.84l-17.07-9.34z"/>
 <path id="Shape 1 copy 2" fill="#3b434f" d="m253.16 438.03c-1.68 2.12-48.83 0.66-81.49-27.74-23.66-20.56 11.94-32.42 11.94-32.42s26.03-5.98 26.03-5.98l22.61 11.52s1.71 34.56 1.71 34.56c9.52 14.93 21.9 16.64 19.2 20.06zm-23.47-18.35l-2.56-36.27-13.65-7.68-26.03 6.4s-31.52 6.47-11.52 25.18c21.59 20.19 61.53 25.61 65.71 25.17 4.33-0.45-2.43 2.13-11.95-12.8z" fill-rule="evenodd"/>
 <path id="Shape 1 copy 4" fill="#f5f3ef" d="m303.06 374.65l27.04 6.23s33.11 7.51 11.08 29.88-78.69 26.32-78.69 26.32 14.98-7.11 21.35-17.11l2.13-35.95s17.09-9.37 17.09-9.37z"/>
 <path id="Shape 1 copy 6" fill="#3b434f" d="m261.64 438.8c1.68 2.13 48.86 0.66 81.54-27.82 23.67-20.62-11.95-32.52-11.95-32.52l-26.04-5.99-22.63 11.55-1.71 34.66c-9.52 14.98-21.91 16.69-19.21 20.12zm23.48-18.4l2.56-36.38 13.66-7.7 26.05 6.42s31.54 6.48 11.52 25.25c-21.6 20.25-61.56 25.68-65.74 25.24-4.34-0.45 2.43 2.14 11.95-12.83z" fill-rule="evenodd"/>
 <path id="2 copy 5" fill="#fff" d="m259.21 116.47c53.08 0 94.98 49.6 93.61 109.19l-1.44 63.35c-1.29 56.14-42.53 100.52-92.17 100.52-49.63 0-90.87-44.38-92.16-100.52l-1.45-63.35c-1.36-59.59 40.54-109.19 93.61-109.19z"/>
 <path id="2 line" fill="#3b434f" d="m357.09 223.7s-1.52 65.92-1.52 65.92c-1.34 58.42-44.56 104.61-96.57 104.61-52 0-95.22-46.19-96.57-104.61 0 0-1.52-65.92-1.52-65.92-1.42-62.02 42.47-113.63 98.09-113.63s99.52 51.61 98.09 113.63zm-98.3-106.81c-52.35 0-93.68 49.22-92.33 108.35l1.43 62.84c1.26 55.71 41.95 99.75 90.9 99.75s89.63-44.04 90.9-99.75l1.43-62.84c1.34-59.13-39.98-108.35-92.33-108.35z" fill-rule="evenodd"/>
 <path id="Shape 1" fill="#3b434f" d="m348.52 326.92c-1.26 5.97-17.84 60.1-14.84 36.67s-28.82 21.29-28.82 21.29c-5.88 6.04-29.69 20.11-29.69 20.11v-5.91l-17.47 7.09-7.86-7.09-0.87 7.09c-2.34-3.46-49.78-35.48-49.78-35.48s8.14 14.49 1.74 7.1c-0.22-0.27-0.46-0.55-0.7-0.85-6.47-8.11-16.76-28.72-16.76-28.72l-1.75 14.19c-15.43-30-14.84-67.42-14.84-67.42l-2.6-78.14h6.99s2.59 55.67 2.59 55.67l11.36 18.92c7.34 10.73 27.07 5.91 27.07 5.91 57.02 39.57 93.44-2.36 93.44-2.36s24.7 5.48 32.31 2.36c7.61-3.11 8.71-80.61 8.71-80.61h6.12s-3.08 104.22-4.35 110.18zm-40.95 6.01c-1.25-15.05-10.4-13.77-10.4-13.77-16.28 4.74-29.05 7.38-39.03 8.72v-0.1c-9.91-1.33-22.59-3.94-38.75-8.65 0 0-9.09-1.26-10.33 13.66 0 0-3.65 11.53 8.61 17.92l15.5 8.53s10.59 3.33 10.33-9.39c0 0-1.07-1.8 5.17-3.41h9.47v0.28h9.54c6.29 1.63 5.21 3.51 5.21 3.51-0.27 12.81 10.4 9.46 10.4 9.46l15.61-8.67c12.35-6.44 8.67-18.09 8.67-18.09z" fill-rule="evenodd"/>
 <path id="usta" fill="#3b434f" d="m305.08 327.33c-7.76 6.73-25.27 13.14-45.65 13.14s-37.9-6.41-45.66-13.14c0 0-0.79-2.19 0.37-3.35 1.19-1.19 3.05-0.93 3.05-0.93 7.74 6.74 21.85 12.3 42.24 12.3s34.49-5.56 42.24-12.3c0 0 1.89-0.7 2.81 0.22 1.78 1.77 0.6 4.06 0.6 4.06z"/>
 <path id="-" fill="#3b434f" d="m245.35 350.71h27.3v4.26h-27.3v-4.26z"/>
 <path id="Shape 11 copy" fill="#fff" d="m160.81 233.31c-0.01 0-1.05-0.82-3.01-1.44-0.97-0.31-2.19-0.56-3.57-0.62-0.35-0.02-0.71-0.02-1.07-0.01s-0.74 0.03-1.12 0.07c-0.75 0.09-1.53 0.23-2.32 0.46-3.15 0.9-6.37 3.1-8.26 7.65-0.94 2.27-1.57 5.13-1.73 8.71-0.04 0.89-0.06 1.83-0.04 2.81 0.02 0.99 0.07 2.02 0.15 3.11 0.16 2.16 0.46 4.52 0.9 7.09-0.01 0-0.41 7.77 2.37 16.7 2.61 8.73 8.88 19.46 20.46 22.52-1.33-22.17-1.37-44.77-2.76-67.05z"/>
 <path id="Shape 3" fill="#3b434f" d="m162.13 234.21s-20.18-6.25-19.47 14.49c0 0 3.01 30.08 4.31 32.85 0 0 7.92 17.51 21 18.29 12.78 0.75 0 0 0 0l0.16 5.64s-22.99-2.95-27.42-29.43l-3.51-24.07s-2.72-31.84 23.67-23.75c25.71 7.89 0 0 0 0l1.26 5.98"/>
 <path id="Shape 4" fill="#3b434f" d="m155.47 275.99s-1.13 0.86-2.1 0.86-2.09-0.86-2.09-0.86-2.08-20.98-2.08-20.98 2.87-10.33 15.07-4.87c0 0 0.28 6 0.28 6s-10.69-3.79-10.47 0.93c0.21 4.55 1.39 18.92 1.39 18.92z"/>
 <path id="Shape 11 copy_1" fill="#fff" d="m356.81 233.36c0.02 0 1.06-0.82 3.02-1.44 0.98-0.31 2.2-0.56 3.59-0.62 0.35-0.02 0.71-0.02 1.07-0.01 0.37 0.01 0.74 0.03 1.12 0.08 0.76 0.08 1.55 0.22 2.34 0.45 3.17 0.9 6.39 3.1 8.29 7.64 0.95 2.27 1.58 5.13 1.75 8.7 0.04 0.9 0.05 1.84 0.03 2.82-0.02 0.99-0.07 2.02-0.15 3.1-0.16 2.16-0.46 4.52-0.9 7.09 0.01 0 0.41 7.76-2.38 16.69-2.62 8.73-8.92 19.44-20.55 22.51 1.33-22.17 1.37-44.75 2.77-67.01z"/>
 <path id="Shape 3_1" fill="#3b434f" d="m355.48 234.26s20.27-6.25 19.55 14.48c0 0-3.01 30.05-4.32 32.82 0 0-7.96 17.5-21.1 18.28-12.83 0.76 0 0 0 0l-0.16 5.64s23.09-2.94 27.55-29.41l3.52-24.05s2.73-31.82-23.78-23.73c-25.82 7.88 0 0 0 0l-1.26 5.97"/>
 <path id="Shape 4_1" fill="#3b434f" d="m362.17 276.01s1.14 0.86 2.11 0.86 2.09-0.86 2.09-0.86l2.1-20.96s-2.89-10.33-15.13-4.87l-0.29 5.99s10.74-3.79 10.52 0.93c-0.22 4.55-1.4 18.91-1.4 18.91z"/>
 <path id="new_vector_shape_done" fill="#3b434f" d="m266.89 274.33h1.5c3.08 4.2 4.34 10.64 5.97 16.22 0.51 1.72 0.02 4.75-0.43 5.97-1.61 4.48-6.69 4.4-10.88 6.4-1.12 0.54-1.96 1.47-3.41 1.71-0.95-0.84-2.09-1-2.56-2.35-1.15-1.59 0.33-2.58 1.49-3.2 2.11-1.13 8.61-2.24 9.39-4.27 0.96-1.09 0.32-4.39 0-5.54-0.83-2.97-1.22-5.44-2.35-8.11-0.74-1.77-2.05-3.65-1.28-5.76 0.65-0.28 2.04-0.59 2.56-1.07z" fill-rule="evenodd"/>
 <path id="Rounded Rectangle 8" fill="#3b434f" d="m207.8 241.48h5.97c3.3 0 5.98 2.67 5.98 5.97s-2.68 5.98-5.98 5.98h-5.97c-3.3 0-5.97-2.68-5.97-5.98s2.67-5.97 5.97-5.97z"/>
 <path id="Rounded Rectangle 8 copy" fill="#3b434f" d="m305.08 241.48h5.97c3.3 0 5.98 2.67 5.98 5.97s-2.68 5.98-5.98 5.98h-5.97c-3.3 0-5.97-2.68-5.97-5.98s2.67-5.97 5.97-5.97z"/>
 <path id="Ellipse 3" fill="#edf1f1" d="m310.63 269.64c5.89 0 10.66 4.78 10.66 10.67s-4.77 10.66-10.66 10.66-10.67-4.77-10.67-10.66 4.78-10.67 10.67-10.67z"/>
 <path id="Ellipse 3 copy" fill="#edf1f1" d="m207.37 269.64c5.89 0 10.67 4.78 10.67 10.67s-4.78 10.66-10.67 10.66-10.66-4.77-10.66-10.66 4.77-10.67 10.66-10.67z"/>
 <path id="glasses" fill="#3b444f" d="m351.94 228.88c-0.58 4.93-1.08 10.96-2.15 16.36-3.19 16.12-17.05 31.07-40.71 32.77s-43.8-10.21-44.98-26.61c-0.2-2.78-0.74-5.9-1.15-8.93-3.35-1.86-6.8-1.86-10.36-0.01-0.41 3.1-0.97 6.3-1.17 9.15-1.18 16.45-21.39 28.4-45.13 26.69s-37.64-16.7-40.84-32.88c-1.06-5.41-1.57-11.46-2.15-16.41l-3.49-0.25 0.49-6.81 0.85 0.06 21.59 1.55 18.22 1.32 18.26 1.31 28.44 2.05c1.96 0.24 3.26 1.08 4.1 2.34 4.08 1.79 8.05 1.8 11.9 0.02 0.83-1.33 2.15-2.23 4.19-2.49l28.34-2.04 18.2-1.31 18.17-1.31 21.52-1.55 0.85-0.06s0.49 6.79 0.49 6.79l-3.48 0.25zm-111.92 7.36l-55.73-4.01c-7.29-0.63-9.87 7.56-10.32 13.8-0.95 13.16 13.71 24.94 32.75 26.31s35.24-8.18 36.19-21.35c0.45-6.24 2.49-10.09-2.89-14.75zm101.29 9.61c-0.45-6.23-3.03-14.39-10.29-13.76l-55.56 3.99c-5.36 4.65-3.33 8.49-2.88 14.71 0.94 13.12 17.09 22.65 36.07 21.28 18.98-1.36 33.6-13.11 32.66-26.22z" fill-rule="evenodd"/>
 <path id="Shape 7" fill="#3b434f" d="m166.02 261.11s11.87-52 22.2-66.22c10.32-14.22 19.26-17.63 23.9-18.06 4.64-0.44 41.17 10.36 91.36-2.01 0 0 19.78-0.79 28.17 19.06 0 0 17.69 31.64 20.49 63.21h3.42s7.23-55.34 4.27-88.29c-2.97-32.95-46.11-49.16-46.11-49.16l9.39-7.02s-21.92-6.78-30.73-3.01l6.83-14.05s-44.25 0.088-69.16 20.07l0.85-10.04s-87.79 13.47-69.15 153.51l4.27 2.01z"/>
</svg>
