<?xml version="1.0" encoding="utf-8"?>
<!-- Generator: Adobe Illustrator 20.0.0, SVG Export Plug-In . SVG Version: 6.00 Build 0)  -->
<svg version="1.1" id="Layer_1" xmlns="http://www.w3.org/2000/svg" xmlns:xlink="http://www.w3.org/1999/xlink" x="0px" y="0px"
	 viewBox="0 0 612 199.2" style="enable-background:new 0 0 612 199.2;" xml:space="preserve">
<style type="text/css">
	.st0{fill:#29566A;}
</style>
<g id="Layer_1_1_">
	<g>
		<path class="st0" d="M42.3,133.5c0,1.8,0,3.6,0,5.4c0,0.5-0.5,0.8-1,1c-2.3,1-4.4,2.3-6.5,3.9c-1.6,1.3-2.6,2.8-3.1,4.7
			c-0.3,1.8,0.3,3.6,1.6,5.2c1.6,1.8,3.4,3.1,5.4,4.4c4.1,2.3,8.5,3.9,12.9,5.2c8,2.3,16,3.6,24.1,4.7c7,0.8,14.2,1.6,21.2,1.8
			c8.5,0.5,17.3,0.5,25.9,0c6.5-0.3,12.9-0.8,19.4-1.6c11.1-1,21.5-2.8,31.8-6.2c4.1-1.3,8-2.8,11.6-5.2c1.3-0.8,2.6-1.8,3.6-3.1
			c2.6-2.8,2.6-6-0.3-8.8c-2.1-2.1-4.7-3.6-7.2-5.2c-0.5-0.3-1.3-0.5-1.8-1c0-2.3,0-4.7,0-7.2c1.8,0.8,3.4,1.3,4.9,2.1
			c4.9,2.1,9.6,4.7,13.7,7.8c2.6,2.1,4.9,4.4,6.5,7.2c2.1,3.9,2.1,7.8,0.3,11.6c-1.8,3.6-4.9,6.5-8,8.8c-4.1,2.8-8.5,5.2-13.2,7
			c-8,3.4-16.6,5.4-25.1,7.2c-6.2,1.3-12.4,2.1-18.6,2.8c-7,0.8-13.7,1.3-20.7,1.3c-5.4,0-10.9,0-16.3,0c-5.2-0.3-10.6-0.5-15.8-1
			c-6.2-0.5-12.7-1.6-18.9-2.6c-11.4-2.1-22.3-4.9-32.6-10.1c-4.4-2.3-8.5-4.9-11.9-8.5c-1.3-1.6-2.6-3.1-3.4-4.9
			c-2.1-4.1-1.8-8.3,0.5-12.2c1.8-3.1,4.4-5.4,7.2-7.5c4.1-3.1,8.8-5.4,13.5-7.2C41.7,133.5,42,133.5,42.3,133.5z"/>
		<path class="st0" d="M102,151.6c0-13.5,0-26.9,0-40.4s0-26.9,0-40.6c0-13.5,0-26.9,0-40.6c-14.8,3.9-29.2,7.5-43.7,11.4
			c0-5.4,0-10.6,0-16c2.1-0.5,4.4-1,6.5-1.6c12.9-3.1,25.9-6.2,38.8-9.6c0.5,0,1-0.3,1.6-0.5c1.6-0.3,3.1-1,4.7-1
			c1.8,0,3.6,0.8,5.4,1c10.4,2.8,20.4,5.4,30.5,7.8c6,1.3,11.6,2.8,17.6,4.1c0.3,0,0.5,0.3,0.5,0.3c0.3,1.6,0.3,14.8,0,15.8
			c-15.5-3.9-30.8-7.5-46.3-11.4c0,0.3-0.3,0.8-0.3,1c0,0.5,0,1,0,1.6c0,39.1,0,77.9,0,117c0,0.5,0,1.3,0,1.8
			C116.3,151.9,103.6,151.9,102,151.6z"/>
		<path class="st0" d="M332.4,111.5c-6,0-11.9,0-18.1,0c-4.1-19.4-8-39.1-12.2-58.5c5.4,0,10.9,0,16.3,0c1.6,12.9,3.1,25.9,4.7,38.8
			h0.3c1-4.1,1.8-8.5,2.6-12.7c0.8-4.4,1.8-8.8,2.6-13.2s1.8-8.5,2.6-12.9c5.2,0,10.4,0,15.3,0c1.3,6.5,2.6,12.9,3.9,19.4
			s2.6,12.9,3.9,19.4c0,0,0.3,0,0.5,0c1.8-12.9,3.9-25.6,5.7-38.6c1.3-0.3,13.7-0.3,15.5,0c-4.1,19.4-8,39.1-12.2,58.5
			c-6,0-11.9,0-18.1,0c-1-5.7-2.1-11.4-3.1-17.3c-1-5.7-2.1-11.4-3.1-17.1h-0.3C336.6,88.7,334.5,100.1,332.4,111.5z"/>
		<path class="st0" d="M471.4,111.5c-0.8,0-1,0-1.6,0c-4.7,0-9.3,0-14,0c-1,0-1.6-0.3-2.1-1.3c-2.6-6.2-5.4-12.4-8.3-18.6
			c-0.3-0.5-0.5-1.6-1.6-1c0,6.7,0,13.7,0,20.4c-1.3,0.3-12.9,0.5-15.5,0.3c0-0.5,0-1,0-1.6c0-3.1,0-6,0-9.1c0-15.3,0-30.8,0-46.1
			c0-0.8,0-1.3,0-2.1c0.5,0,0.8,0,1.3,0c9.3,0,18.6,0,27.7,0c2.6,0,4.9,0.8,7,2.1c1.6,1.3,2.8,2.8,3.4,4.7c0.5,1.3,0.5,2.8,0.5,4.1
			c0,5.7,0,11.1,0,16.6c0,4.4-2.3,7.5-6.5,9.1c-0.3,0-0.5,0.3-1,0.5C464.4,97.3,467.8,104.3,471.4,111.5z M444.2,64.2
			c-0.3,2.1-0.3,14.5,0,15.8c2.1,0,3.9,0,6,0c1.8,0,2.3-0.5,2.3-2.3c0-1.6,0-3.1,0-4.7c0-2.1,0-4.1,0-6.5c0-1.6-0.5-2.3-2.1-2.3
			C448.6,64.2,446.6,64.2,444.2,64.2z"/>
		<path class="st0" d="M254.2,82.3c0-6.5,0-12.9,0-19.4c0-2.6,1-4.7,2.6-6.5c1.6-1.6,3.1-2.3,4.9-2.8s3.6-0.5,5.7-0.5
			c5.2,0,10.1,0,15.3,0c2.1,0,4.4,0.5,6.2,1.6c2.8,1.6,4.4,3.9,4.7,7c0,1,0.3,1.8,0.3,2.8c0,11.9,0,23.8,0,35.7c0,1.8-0.3,3.9-1,5.4
			c-1.3,3.1-3.6,4.7-7,5.4c-1.6,0.3-3.1,0.5-4.9,0.5c-4.9,0-10.1,0-15,0c-2.1,0-3.9-0.3-6-1c-3.9-1.6-6-4.4-6.2-8.5c0-1,0-2.1,0-3.1
			c0-5.7,0-11.1,0-16.6C254,82.3,254.2,82.3,254.2,82.3z M269.8,82c0,4.9,0,9.8,0,14.8c0,0.3,0,0.8,0,1.3c0,1.6,0.5,2.1,2.1,2.1
			c1.3,0,2.6,0,3.9,0c2.3,0,2.8-0.8,2.8-2.8c0-0.3,0-0.5,0-0.8c0-9.6,0-19.4,0-29c0-0.5,0-1,0-1.6c0-1.6-0.8-2.1-2.1-2.1
			s-2.8,0-4.1,0c-1.6,0-2.3,0.8-2.3,2.3c0,0.3,0,0.8,0,1.3C269.8,72.4,269.8,77.4,269.8,82z"/>
		<path class="st0" d="M384.2,53c11.6,0,23,0,34.4,0c0,3.6,0,7.5,0,11.1c-6.2,0-12.4,0-18.6,0c-0.5,1.3-0.5,10.6,0,12.2
			c2.6,0,5.4,0,8,0s5.4,0,8,0c0.3,1,0.5,8.5,0.3,11.1c-1.3,0.3-2.6,0-3.9,0s-2.8,0-4.1,0s-2.8,0-4.1,0s-2.6,0-3.9,0
			c-0.3,1.3-0.5,11.1,0,12.7c3.1,0,6.5,0,9.8,0c3.1,0,6.5,0,9.8,0c0.3,3.6,0,7.5,0,10.9c-1.3,0.3-33.9,0.3-35.5,0
			C384.2,92.1,384.2,72.4,384.2,53z"/>
		<path class="st0" d="M235.1,111.5c-5.2,0-10.4,0-15.5,0c0-15.8,0-31.6,0-47.4c-3.9,0-7.5,0-11.1,0c-0.3-3.9,0-7.5,0-11.1
			c1.3-0.3,36.5-0.5,38.1,0c0,3.6,0,7.2,0,11.1c-3.6,0-7.2,0-11.1,0c0,0.8,0,1.3,0,1.8c0,12.7,0,25.4,0,38.3c0,1.8,0,3.9,0,5.7
			C235.1,110.5,235.1,111,235.1,111.5z"/>
		<path class="st0" d="M568,83c0-6.7,0-13.2,0-19.9c0-1.3,0-2.6,0.3-3.6c0.5-2.1,1.8-3.6,3.9-4.4c1-0.3,2.3-0.5,3.4-0.8
			c3.9,0,7.8,0,11.6,0c1.3,0,2.3,0.3,3.6,0.8c2.1,0.8,3.1,2.3,3.6,4.4c0.3,1,0.3,2.1,0.3,3.1c0,13.5,0,26.9,0,40.4
			c0,1,0,1.8-0.3,2.8c-0.5,2.6-1.8,4.4-4.4,5.2c-1,0.3-1.8,0.5-2.8,0.5c-3.9,0-7.8,0-11.6,0c-1,0-1.8-0.3-2.8-0.5
			c-2.8-0.8-4.4-3.1-4.7-6.2c0-0.8,0-1.6,0-2.6C568,96,568,89.5,568,83z M576,83c0,6.2,0,12.4,0,18.6c0,0.5,0,1.3,0,1.8
			c0.3,1,0.5,1.6,1.8,1.6c2.3,0,4.4,0,6.7,0c1,0,1.6-0.5,1.8-1.8c0-0.8,0-1.3,0-2.1c0-12.2,0-24.3,0-36.5c0-0.5,0-1.3,0-1.8
			c0-1.6-0.8-2.1-2.3-2.1c-1.6,0-3.1,0-4.7,0c-3.1,0-3.4,0.3-3.4,3.4C576,70.6,576,76.8,576,83z"/>
		<path class="st0" d="M541.3,78.6c3.1,0,6,0,8.8,0c1,0,2.1,0,3.1,0.3c3.9,0.5,6.2,2.8,6.2,7c0,6.2,0,12.4,0,18.6c0,4.7-2.8,7-7,7.2
			c-3.9,0.3-8,0-11.9,0c-1.3,0-2.6-0.5-3.6-1c-2.3-1-3.4-3.4-3.6-5.7c0-0.8,0-1.6,0-2.1c0-13.2,0-26.4,0-39.6c0-1.6,0-2.8,0.5-4.1
			c0.8-2.1,2.1-3.6,4.1-4.1c1-0.3,2.1-0.5,3.1-0.5c3.6,0,7.2,0,10.6,0c0.8,0,1.6,0,2.3,0.3c3.1,0.8,4.7,2.6,5.2,5.7
			c0,1,0.3,2.1,0.3,3.1c0,2.3,0,4.7,0,7c0,0.5,0,1,0,1.6c-2.6,0-5.2,0-7.8,0c0-0.5,0-0.8,0-1.3c0-2.3,0-4.4,0-6.7c0-0.5,0-1,0-1.6
			c-0.3-1-0.8-1.6-1.6-1.6c-2.3,0-4.4,0-6.7,0c-1,0-1.6,0.5-1.6,1.6c0,0.5,0,0.8,0,1.3c0,4.7,0,9.1,0,13.7
			C541.3,77.9,541.3,78.1,541.3,78.6z M541.3,85.4c0,0.5,0,0.8,0,1c0,5.2,0,10.4,0,15.8c0,0.3,0,0.8,0,1.3c0,1,0.5,1.8,1.8,1.8
			c2.3,0,4.4,0,6.7,0c1,0,1.6-0.5,1.6-1.6c0-0.5,0-1,0-1.6c0-4.4,0-8.8,0-13.2c0-0.3,0-0.8,0-1.3c-0.3-1.6-0.8-2.3-2.3-2.3
			c-2.3,0-4.7,0-7,0C541.8,85.1,541.6,85.4,541.3,85.4z"/>
		<path class="st0" d="M521.1,82.5c2.6,0.8,3.4,2.8,3.4,5.4c0,5.4,0,11.1,0,16.6c-0.3,5.4-3.4,7-7,7c-3.6,0.3-7.2,0.3-10.9,0
			c-3.9-0.3-6.7-2.3-7-6.5c-0.3-3.6,0-7.2,0-10.9c2.6,0,5.2,0,7.8,0c0,0.5,0,0.8,0,1.3c0,2.1,0,4.1,0,6.2c0,0.5,0,1.3,0,1.8
			c0.3,1.3,0.8,1.8,1.8,1.8c1.8,0,3.4,0,5.2,0c1.3,0,1.8-0.5,1.8-1.8c0-5.2,0-10.4,0-15.5c0-1.3-0.8-1.8-2.1-1.8c-1.8,0-3.6,0-5.4,0
			c-0.5,0-1.3,0-1.6,0c-0.3-1.3-0.3-4.7,0-6.5c0.5,0,0.8,0,1.3,0c1.8,0,3.6,0,5.4,0c2.1,0,2.3-0.5,2.6-2.6c0-2.6,0-4.9,0-7.5
			c0-2.1,0-3.9,0-6c0-1.8-0.5-2.3-2.6-2.3c-1.3,0-2.8,0-4.1,0c-1.8,0-2.6,0.5-2.6,2.6c0,2.3,0,4.4,0,6.7c0,0.5,0,1.3,0,2.1
			c-2.6,0-5.2,0-7.8,0c0-0.3,0-0.5-0.3-1c0-2.8,0-5.7,0-8.5c0-0.5,0-1,0-1.6c0.3-4.1,2.8-6.5,7-6.7c3.6-0.3,7.2-0.3,10.9,0
			c3.9,0.3,7,2.1,7,7c0,5.4,0,10.9,0,16.3c0,2.1-0.8,3.6-2.8,4.7C521.4,82.3,521.4,82.5,521.1,82.5z"/>
		<path class="st0" d="M164.2,55.4c0,6,0,11.9,0,18.1c-11.4-1.6-22.8-3.1-34.2-4.7c0-7.2,0-14,0-21.2
			C141.7,50.2,153,52.8,164.2,55.4z"/>
		<path class="st0" d="M130.3,145.9c0-6.7,0-13.5,0-20.4c11.4-1.3,22.5-2.6,33.9-3.6c0.3,1.3,0.5,15.3,0.3,17.9
			C162.9,140,131.6,146.2,130.3,145.9z"/>
		<path class="st0" d="M164.2,106.6c-11.4,0.3-22.5,0.5-33.7,0.8c-0.3-1-0.5-18.1,0-20.7c11.4,0.5,22.5,1.3,33.9,1.8
			C164.4,89.8,164.4,104.8,164.2,106.6z"/>
		<path class="st0" d="M89.1,47.6c0,7.2,0,14,0,21.2c-10.4,1.6-20.4,3.1-30.8,4.7c-0.3-1-0.5-15.3-0.3-18.1
			C68.4,52.8,78.7,50.4,89.1,47.6z"/>
		<path class="st0" d="M58.3,121.9c10.4,1.3,20.7,2.6,30.8,3.6c0,7,0,13.7,0,20.4c-1.3,0-27.4-5.4-30.8-6.5
			C58.3,133.8,58.3,127.8,58.3,121.9z"/>
		<path class="st0" d="M89.1,86.7c0,7,0,13.7,0,20.7c-10.4-0.3-20.4-0.5-30.8-0.8c-0.3-1.3-0.3-16.3,0-17.9
			C68.4,88,78.7,87.4,89.1,86.7z"/>
	</g>
</g>
</svg>
